<svg xmlns="http://www.w3.org/2000/svg" xmlns:xlink="http://www.w3.org/1999/xlink" width="1080" zoomAndPan="magnify" viewBox="0 0 810 809.999993" height="1080" preserveAspectRatio="xMidYMid meet" version="1.0"><defs><g/></defs><rect x="-81" width="972" fill="#ffe600" y="-80.999999" height="971.999992" fill-opacity="1"/><rect x="-81" width="972" fill="#ffffff" y="-80.999999" height="971.999992" fill-opacity="1"/><rect x="-81" width="972" fill="#ffe600" y="-80.999999" height="971.999992" fill-opacity="1"/><path fill="#ffe600" d="M 40.261719 475.8125 L 40.261719 403.476562 C 40.261719 383.5 56.457031 367.308594 76.429688 367.308594 L 144.601562 367.308594 C 164.578125 367.308594 180.769531 351.113281 180.769531 331.136719 L 180.769531 313.230469 C 180.769531 293.253906 196.960938 277.0625 216.9375 277.0625 L 591.484375 277.0625 C 611.460938 277.0625 627.652344 293.253906 627.652344 313.230469 L 627.652344 331.136719 C 627.652344 351.113281 643.847656 367.308594 663.820312 367.308594 L 731.992188 367.308594 C 751.96875 367.308594 768.160156 383.5 768.160156 403.476562 L 768.160156 475.8125 C 768.160156 495.789062 751.96875 511.980469 731.992188 511.980469 L 76.429688 511.980469 C 56.457031 511.980469 40.261719 495.789062 40.261719 475.8125 " fill-opacity="1" fill-rule="nonzero"/><g fill="#000000" fill-opacity="1"><g transform="translate(224.025302, 385.355705)"><g><path d="M 75.804688 -72.195312 L 18.050781 -72.195312 C 10.109375 -72.195312 3.609375 -65.699219 3.609375 -57.757812 L 3.609375 -43.316406 C 3.609375 -35.375 10.109375 -28.878906 18.050781 -28.878906 L 61.367188 -28.878906 L 61.367188 -14.4375 L 3.609375 -14.4375 L 3.609375 0 L 61.367188 0 C 69.308594 0 75.804688 -6.496094 75.804688 -14.4375 L 75.804688 -28.878906 C 75.804688 -36.820312 69.308594 -43.316406 61.367188 -43.316406 L 18.050781 -43.316406 L 18.050781 -57.757812 L 75.804688 -57.757812 Z M 75.804688 -72.195312 "/></g></g></g><g fill="#000000" fill-opacity="1"><g transform="translate(317.700138, 385.355705)"><g><path d="M 18.050781 -72.195312 C 10.109375 -72.195312 3.609375 -65.699219 3.609375 -57.757812 L 3.609375 0 L 18.050781 0 L 18.050781 -28.878906 L 61.367188 -28.878906 L 61.367188 0 L 75.804688 0 L 75.804688 -57.757812 C 75.804688 -65.699219 69.308594 -72.195312 61.367188 -72.195312 Z M 18.050781 -57.757812 L 61.367188 -57.757812 L 61.367188 -43.316406 L 18.050781 -43.316406 Z M 18.050781 -57.757812 "/></g></g></g><g fill="#000000" fill-opacity="1"><g transform="translate(411.374974, 385.355705)"><g><path d="M 18.050781 -72.195312 C 10.109375 -72.195312 3.609375 -65.699219 3.609375 -57.757812 L 3.609375 0 L 18.050781 0 L 18.050781 -57.757812 L 32.488281 -57.757812 L 32.488281 0 L 46.925781 0 L 46.925781 -57.757812 L 61.367188 -57.757812 L 61.367188 0 L 75.804688 0 L 75.804688 -57.757812 C 75.804688 -65.699219 69.308594 -72.195312 61.367188 -72.195312 Z M 18.050781 -72.195312 "/></g></g></g><g fill="#000000" fill-opacity="1"><g transform="translate(505.04981, 385.355705)"><g><path d="M 75.804688 -57.757812 C 75.804688 -65.699219 69.308594 -72.195312 61.367188 -72.195312 L 3.609375 -72.195312 L 3.609375 0 L 18.050781 0 L 18.050781 -28.878906 L 26.53125 -28.878906 L 53.246094 -2.164062 C 54.6875 -0.722656 56.492188 0 58.480469 0 L 75.804688 0 L 75.804688 -14.4375 L 61.367188 -14.4375 L 46.925781 -28.878906 L 61.367188 -28.878906 C 69.308594 -28.878906 75.804688 -35.375 75.804688 -43.316406 Z M 61.367188 -57.757812 L 61.367188 -43.316406 L 18.050781 -43.316406 L 18.050781 -57.757812 Z M 61.367188 -57.757812 "/></g></g></g><g fill="#000000" fill-opacity="1"><g transform="translate(83.512449, 475.601202)"><g><path d="M 75.804688 -72.195312 L 18.050781 -72.195312 C 10.109375 -72.195312 3.609375 -65.699219 3.609375 -57.757812 L 3.609375 0 L 18.050781 0 L 18.050781 -28.878906 L 75.804688 -28.878906 L 75.804688 -43.316406 L 18.050781 -43.316406 L 18.050781 -57.757812 L 75.804688 -57.757812 Z M 75.804688 -72.195312 "/></g></g></g><g fill="#000000" fill-opacity="1"><g transform="translate(177.187285, 475.601202)"><g><path d="M 75.804688 0 L 75.804688 -14.4375 L 46.925781 -14.4375 L 46.925781 -57.757812 L 75.804688 -57.757812 L 75.804688 -72.195312 L 3.609375 -72.195312 L 3.609375 -57.757812 L 32.488281 -57.757812 L 32.488281 -14.4375 L 3.609375 -14.4375 L 3.609375 0 Z M 75.804688 0 "/></g></g></g><g fill="#000000" fill-opacity="1"><g transform="translate(270.862121, 475.601202)"><g><path d="M 75.804688 -72.195312 L 18.050781 -72.195312 C 10.109375 -72.195312 3.609375 -65.699219 3.609375 -57.757812 L 3.609375 -14.4375 C 3.609375 -6.496094 10.109375 0 18.050781 0 L 61.367188 0 C 69.398438 0 75.804688 -6.589844 75.804688 -14.4375 L 75.804688 -43.316406 L 32.488281 -43.316406 L 32.488281 -28.878906 L 61.367188 -28.878906 L 61.367188 -14.4375 L 18.050781 -14.4375 L 18.050781 -57.757812 L 75.804688 -57.757812 Z M 75.804688 -72.195312 "/></g></g></g><g fill="#000000" fill-opacity="1"><g transform="translate(364.536957, 475.601202)"><g><path d="M 61.367188 -43.316406 L 18.050781 -43.316406 L 18.050781 -72.195312 L 3.609375 -72.195312 L 3.609375 0 L 18.050781 0 L 18.050781 -28.878906 L 61.367188 -28.878906 L 61.367188 0 L 75.804688 0 L 75.804688 -72.195312 L 61.367188 -72.195312 Z M 61.367188 -43.316406 "/></g></g></g><g fill="#000000" fill-opacity="1"><g transform="translate(458.211794, 475.601202)"><g><path d="M 75.804688 -72.195312 L 3.609375 -72.195312 L 3.609375 -57.757812 L 32.488281 -57.757812 L 32.488281 0 L 46.925781 0 L 46.925781 -57.757812 L 75.804688 -57.757812 Z M 75.804688 -72.195312 "/></g></g></g><g fill="#000000" fill-opacity="1"><g transform="translate(551.88663, 475.601202)"><g><path d="M 75.804688 -72.195312 L 18.050781 -72.195312 C 10.109375 -72.195312 3.609375 -65.699219 3.609375 -57.757812 L 3.609375 -14.4375 C 3.609375 -6.496094 10.109375 0 18.050781 0 L 75.804688 0 L 75.804688 -14.4375 L 18.050781 -14.4375 L 18.050781 -28.878906 L 75.804688 -28.878906 L 75.804688 -43.316406 L 18.050781 -43.316406 L 18.050781 -57.757812 L 75.804688 -57.757812 Z M 75.804688 -72.195312 "/></g></g></g><g fill="#000000" fill-opacity="1"><g transform="translate(645.561466, 475.601202)"><g><path d="M 75.804688 -57.757812 C 75.804688 -65.699219 69.308594 -72.195312 61.367188 -72.195312 L 3.609375 -72.195312 L 3.609375 0 L 18.050781 0 L 18.050781 -28.878906 L 26.53125 -28.878906 L 53.246094 -2.164062 C 54.6875 -0.722656 56.492188 0 58.480469 0 L 75.804688 0 L 75.804688 -14.4375 L 61.367188 -14.4375 L 46.925781 -28.878906 L 61.367188 -28.878906 C 69.308594 -28.878906 75.804688 -35.375 75.804688 -43.316406 Z M 61.367188 -57.757812 L 61.367188 -43.316406 L 18.050781 -43.316406 L 18.050781 -57.757812 Z M 61.367188 -57.757812 "/></g></g></g></svg>